# xmcd
#
# Track frame offsets:
#	150
#	13467
#	25315
#	43560
#	55937
#	77622
#	99017
#	115715
#	131900
#	144245
#	163655
#	178222
#	194870
#	195382
#
# Disc length: 2841 seconds
# Revision: 0
# Processed by: cddbd v1.5.2PL0 Copyright (c) Steve Scherf et al.
# Submitted via: dBpowerAMP V12.0
#
DISCID=bf0b170e
DTITLE=Various Artist - Double Live [Disc 1]
DYEAR=1998
DGENRE=Country
TTITLE0=Garth Brooks - Callin' Baton Rouge
TTITLE1=Garth Brooks - Two of a Kind, Workin' on a Full House
TTITLE2=Garth Brooks - Shameless
TTITLE3=Garth Brooks - Papa Loved Mama
TTITLE4=Garth Brooks - The Thunder Rolls (The Long Version)
TTITLE5=Garth Brooks - We Shall Be Free
TTITLE6=Garth Brooks - Unanswered Prayers
TTITLE7=Garth Brooks - Standing Outside the Fire
TTITLE8=Steve Wariner - Longneck Bottle
TTITLE9=Garth Brooks - It's Your Song
TTITLE10=Garth Brooks - Much Too Young (To Feel This Damn Old)
TTITLE11=Garth Brooks - The River
TTITLE12=Garth Brooks - [A Cheer of the Crowd]
TTITLE13=Garth Brooks - Tearin' It Up (And Burnin' It Down)
EXTD=
EXTT0=
EXTT1=
EXTT2=
EXTT3=
EXTT4=
EXTT5=
EXTT6=
EXTT7=
EXTT8=
EXTT9=
EXTT10=
EXTT11=
EXTT12=
EXTT13=
PLAYORDER=
